<svg width="92" height="92" viewBox="0 0 92 92" fill="none" xmlns="http://www.w3.org/2000/svg">
<rect y="0.244141" width="91.5618" height="91.5618" rx="45.7809" fill="url(#paint0_linear_1727_3712)"/>
<path d="M14.45 49.2738C14.3185 49.2738 14.2137 49.3754 14.197 49.522L13.7344 53.0383L14.197 56.4931C14.1987 56.638 14.3185 56.7396 14.45 56.7396C14.5782 56.7396 14.6813 56.6396 14.703 56.4931L15.2505 53.0367L14.703 49.5203C14.683 49.3754 14.5782 49.2738 14.45 49.2738ZM17.0512 47.3532C17.0296 47.2016 16.9214 47.0983 16.7883 47.0983C16.6551 47.0983 16.5436 47.2066 16.5253 47.3532C16.5253 47.3533 15.9029 53.0383 15.9029 53.0383L16.5253 58.5969C16.5436 58.7468 16.6535 58.8534 16.7883 58.8534C16.9214 58.8534 17.0296 58.7485 17.0512 58.5985L17.7585 53.0383L17.0512 47.3532ZM26.847 42.1094C26.5924 42.1094 26.3811 42.3177 26.3694 42.5842L25.8735 53.0433L26.3694 59.8029C26.3827 60.0677 26.5924 60.2759 26.847 60.2759C27.1 60.2759 27.3114 60.0677 27.3264 59.8029V59.803L27.8855 53.0435L27.3264 42.5843C27.3114 42.3195 27.1017 42.1096 26.847 42.1096V42.1094ZM21.7761 45.7442C21.5797 45.7442 21.4199 45.9008 21.4049 46.109L20.8474 53.0385L21.4049 59.7347C21.4199 59.943 21.5797 60.0995 21.7761 60.0995C21.9691 60.0995 22.1305 59.943 22.1472 59.7347L22.7813 53.0385L22.1472 46.1074C22.1455 45.8991 21.9708 45.7426 21.7761 45.7426V45.7442ZM31.9996 60.2711C32.3158 60.2711 32.5738 60.0163 32.5854 59.6898L33.0714 53.0452L32.5871 39.1213C32.5738 38.7948 32.3175 38.5399 32.0012 38.5399C31.6817 38.5399 31.4238 38.7965 31.4138 39.1229L30.9827 53.0452L31.4138 59.6931C31.4238 60.0179 31.6817 60.2728 31.9996 60.2728V60.2711ZM42.5476 60.3028C42.9837 60.3028 43.3415 59.9446 43.3498 59.5032V59.5082V59.5032L43.6893 53.0485L43.3498 36.9675C43.3415 36.5277 42.982 36.1679 42.5476 36.1679C42.1116 36.1679 41.7521 36.5261 41.7455 36.9691L41.4426 53.0452C41.4426 53.0551 41.7455 59.5099 41.7455 59.5099C41.7521 59.9463 42.1133 60.3061 42.5476 60.3061V60.3028ZM37.2337 60.2811C37.6131 60.2811 37.9177 59.9763 37.9277 59.5882V59.5932L38.3404 53.0485L37.9277 39.023C37.9177 38.6349 37.6115 38.3317 37.2337 38.3317C36.8526 38.3317 36.5463 38.6349 36.538 39.023L36.1719 53.0485L36.5397 59.5915C36.548 59.9746 36.8526 60.2794 37.2353 60.2794L37.2337 60.2811ZM24.3041 60.2178C24.5287 60.2178 24.7118 60.0379 24.7284 59.7997L25.3259 53.0402L24.7284 46.6088C24.7268 46.3706 24.5304 46.1923 24.3041 46.1923C24.0761 46.1923 23.893 46.3722 23.8797 46.6121L23.3538 53.0402L23.8797 59.7997C23.8947 60.0379 24.0761 60.2178 24.3041 60.2178ZM19.278 59.848C19.4428 59.848 19.5759 59.7181 19.5942 59.5382L20.2649 53.0385L19.5942 46.2939C19.5742 46.114 19.4411 45.9841 19.2763 45.9841C19.1099 45.9841 18.9768 46.114 18.9601 46.2939L18.3693 53.0385L18.9601 59.5365C18.9618 59.7164 19.1099 59.848 19.2763 59.848H19.278ZM39.8848 38.7881C39.4738 38.7881 39.1442 39.1163 39.1359 39.5344L38.8014 53.0468L39.1359 59.5499C39.1442 59.963 39.4738 60.2911 39.8848 60.2911C40.2959 60.2911 40.6238 59.9646 40.6337 59.5449V59.5499L41.0099 53.0468L40.6337 39.531C40.6238 39.1129 40.2959 38.7865 39.8848 38.7865V38.7881ZM29.4183 60.2844C29.7029 60.2844 29.9376 60.0529 29.9509 59.7564L30.4735 53.0435L29.9509 40.1923C29.9359 39.8958 29.7029 39.6643 29.4183 39.6643C29.1321 39.6643 28.8974 39.8958 28.8858 40.1923L28.4231 53.0435L28.8858 59.7564C28.8974 60.0496 29.1321 60.2811 29.4183 60.2811V60.2844ZM35.2515 59.6481V59.6448L35.7009 53.0418L35.2515 38.6482C35.2416 38.2901 34.9586 38.0102 34.6108 38.0102C34.2613 38.0102 33.98 38.2901 33.9701 38.6482L33.5723 53.0402L33.9717 59.6465C33.9817 60.0013 34.263 60.2794 34.6125 60.2794C34.9603 60.2794 35.2416 59.9996 35.2532 59.6431L35.2515 59.6481ZM69.2024 44.7448C68.1372 44.7448 67.1204 44.9613 66.1934 45.3495C65.5743 38.3317 59.6961 32.8281 52.5249 32.8281C50.7707 32.8281 49.0599 33.1746 47.5487 33.7593C46.9612 33.9858 46.8048 34.2207 46.7998 34.6754V59.3866C46.8065 59.863 47.1759 60.2595 47.6403 60.3078C47.6602 60.3079 69.0642 60.3211 69.2024 60.3211C73.4978 60.3211 76.9811 56.8347 76.9811 52.5354C76.9811 48.2345 73.4995 44.7481 69.2024 44.7481V44.7448ZM45.2088 34.6538C44.7411 34.6538 44.3583 35.0369 44.3517 35.51L44.0005 53.0485L44.3517 59.4133C44.3583 59.878 44.7411 60.2611 45.2088 60.2611C45.6748 60.2611 46.0576 59.878 46.0659 59.4066V59.4149L46.447 53.0485L46.0659 35.5083C46.0592 35.0386 45.6748 34.6538 45.2088 34.6538Z" fill="white"/>
<defs>
<linearGradient id="paint0_linear_1727_3712" x1="46.9445" y1="91.0296" x2="45.0045" y2="-0.143091" gradientUnits="userSpaceOnUse">
<stop stop-color="#FF433A"/>
<stop offset="1" stop-color="#FF9436"/>
</linearGradient>
</defs>
</svg>
